<?xml version="1.0" encoding="UTF-8"?>
<!DOCTYPE svg PUBLIC "-//W3C//DTD SVG 1.1//EN" "http://www.w3.org/Graphics/SVG/1.1/DTD/svg11.dtd">
<!-- Creator: CorelDRAW (Evaluation Version) -->
<svg xmlns="http://www.w3.org/2000/svg" xml:space="preserve" width="210mm" height="297mm" version="1.1" style="shape-rendering:geometricPrecision; text-rendering:geometricPrecision; image-rendering:optimizeQuality; fill-rule:evenodd; clip-rule:evenodd"
viewBox="0 0 21000000 29700000"
 xmlns:xlink="http://www.w3.org/1999/xlink"
 xmlns:xodm="http://www.corel.com/coreldraw/odm/2003">
 <defs>
  <style type="text/css">
   <![CDATA[
    .fil0 {fill:#AA8D31}
   ]]>
  </style>
 </defs>
 <g id="Layer_x0020_1">
  <metadata id="CorelCorpID_0Corel-Layer"/>
  <path class="fil0" d="M2548060 22041420l0 -8613610 15681200 0 0 8613610c0,381020 -355190,736210 -736210,736210l-14208780 0c-381020,0 -736210,-355190 -736210,-736210zm2282240 -16527830l901150 0c229750,25980 423940,96910 557740,271210 112400,146420 197580,368770 197580,612240l0 1472420 7803790 0 0 -1435610c0,-686320 353610,-875640 796570,-920260l859890 0c398190,0 736200,378650 736200,773020l0 1582850 920260 0c1111590,0 2208620,1097020 2208620,2208610l0 12073780c0,1111590 -1097030,2208620 -2208620,2208620l-14429640 0c-1111590,0 -2208620,-1097030 -2208620,-2208620l0 -12073780c0,-1111590 1097030,-2208610 2208620,-2208610l920260 0 0 -1582850c0,-394370 338020,-773020 736200,-773020z"/>
 </g>
</svg>
