<?xml version="1.0" encoding="UTF-8"?>
<!DOCTYPE svg PUBLIC "-//W3C//DTD SVG 1.1//EN" "http://www.w3.org/Graphics/SVG/1.1/DTD/svg11.dtd">
<!-- Creator: CorelDRAW (Evaluation Version) -->
<svg xmlns="http://www.w3.org/2000/svg" xml:space="preserve" width="200mm" height="140mm" version="1.1" style="shape-rendering:geometricPrecision; text-rendering:geometricPrecision; image-rendering:optimizeQuality; fill-rule:evenodd; clip-rule:evenodd"
viewBox="0 0 20000 14000"
 xmlns:xlink="http://www.w3.org/1999/xlink"
 xmlns:xodm="http://www.corel.com/coreldraw/odm/2003">
 <defs>
  <style type="text/css">
   <![CDATA[
    .fil0 {fill:white}
    .fil1 {fill:white;fill-rule:nonzero}
   ]]>
  </style>
 </defs>
 <g id="Layer_x0020_1">
  <metadata id="CorelCorpID_0Corel-Layer"/>
  <g id="_2843087121792">
   <g>
    <path class="fil0" d="M5717.41 -22101.63c-202.16,0 -366.05,163.88 -366.05,366.04 0,128.36 66.09,241.28 166.09,306.62 -1.67,-10.46 -2.55,-21.18 -2.55,-32.09 0,-26.34 5.06,-51.56 14.26,-74.72 -53.12,-50.06 -86.29,-121.06 -86.29,-199.81 0,-151.62 122.92,-274.53 274.54,-274.53 3.26,0 6.51,0.08 9.74,0.19l0 345.57 0 129.84 0 28.94 0 44.33 0 0.19 91.51 0 0 -640.57 -91.51 0 0 0.13c-3.24,-0.08 -6.48,-0.13 -9.74,-0.13z"/>
    <g>
     <path class="fil0" d="M5707.66 -21918.35c-96.55,5.07 -173.28,84.95 -173.28,182.76l0 187.82c19.22,-40.49 51.49,-73.68 91.52,-93.99l0 -93.83c0,-47.25 35.81,-86.13 81.76,-90.99l0 -91.77z"/>
     <path class="fil0" d="M5707.66 -21643.82c-96.55,5.06 -173.28,84.95 -173.28,182.76 0,97.81 76.73,177.69 173.28,182.76l0 -91.77c-45.95,-4.87 -81.76,-43.75 -81.76,-90.99 0,-47.25 35.81,-86.13 81.76,-90.99l0 -91.77z"/>
    </g>
   </g>
   <path class="fil1" d="M6087.26 -21461.13l0 -140.91 -77.66 0 0 140.91 -89.68 0 0 -507.59c0,-28.83 1.74,-52.04 5.21,-69.66 3.48,-17.61 10.01,-31.09 19.62,-40.43 9.6,-9.33 22.55,-15.47 38.82,-18.41 16.29,-2.93 37.23,-4.41 62.86,-4.41 26.69,0 48.7,1.61 66.05,4.8 17.35,3.21 30.96,9.48 40.83,18.82 9.88,9.34 16.69,22.69 20.42,40.03 3.74,17.35 5.6,40.43 5.6,69.26l0 507.59 -92.07 0zm-39.23 -558.03c-8.01,0 -14.55,0.67 -19.61,2 -5.07,1.33 -9.08,3.74 -12.01,7.21 -2.94,3.47 -4.81,8.54 -5.61,15.2 -0.8,6.68 -1.2,15.35 -1.2,26.03l0 291.42 77.66 0 0 -291.42c0,-10.68 -0.54,-19.35 -1.6,-26.03 -1.06,-6.66 -2.94,-11.73 -5.6,-15.2 -2.67,-3.47 -6.68,-5.88 -12.01,-7.21 -5.35,-1.33 -12.01,-2 -20.02,-2zm288.23 558.03l-92.08 0 0 -632.49 131.31 0c27.22,0 49.37,1.47 66.45,4.41 17.08,2.93 30.56,9.06 40.43,18.41 9.88,9.34 16.55,22.42 20.01,39.23 3.47,16.81 5.21,39.09 5.21,66.85l0 66.45c0,16.55 -1.74,30.03 -5.21,40.44 -3.46,10.4 -8,18.8 -13.6,25.22 -5.61,6.4 -11.75,11.07 -18.42,14 -6.67,2.94 -13.21,5.21 -19.62,6.81l0 3.2c8.55,2.13 16.29,4.94 23.23,8.41 6.94,3.46 12.94,8.8 18.01,16.01 5.07,7.2 8.94,16.41 11.6,27.62 2.68,11.21 4.01,25.62 4.01,43.23l0 252.2 -92.88 0 0 -266.61c0,-17.08 -2.12,-28.95 -6.4,-35.63 -4.26,-6.66 -14.41,-10 -30.42,-10l-41.63 0 0 312.24zm0 -385.1l41.63 0c14.94,0 24.82,-2.93 29.62,-8.8 4.8,-5.88 7.2,-16.55 7.2,-32.03l0 -77.66c0,-10.14 -0.39,-18.28 -1.2,-24.42 -0.79,-6.14 -2.53,-11.07 -5.2,-14.81 -2.66,-3.73 -6.66,-6.27 -12.01,-7.61 -5.33,-1.33 -12.27,-2 -20.81,-2l-39.23 0 0 167.33zm398.71 20.82l0 -143.31c0,-10.68 -0.4,-19.35 -1.2,-26.03 -0.79,-6.66 -2.67,-11.73 -5.6,-15.2 -2.94,-3.47 -6.94,-5.88 -12.01,-7.21 -5.07,-1.33 -11.61,-2 -19.62,-2 -8.54,0 -15.34,0.67 -20.42,2 -5.06,1.33 -9.06,3.87 -12.01,7.6 -2.93,3.74 -4.8,8.95 -5.59,15.62 -0.81,6.67 -1.2,15.08 -1.2,25.22l0 381.89c0,11.21 0.39,20.15 1.2,26.82 0.79,6.67 2.66,11.88 5.59,15.62 2.95,3.73 6.95,6.26 12.01,7.6 5.08,1.33 11.88,2 20.42,2 8.01,0 14.55,-0.67 19.62,-2 5.07,-1.34 9.07,-3.87 12.01,-7.6 2.93,-3.74 4.81,-8.95 5.6,-15.62 0.8,-6.67 1.2,-15.61 1.2,-26.82l0 -146.52 88.87 0 0 146.52c0,29.89 -1.73,53.64 -5.2,71.26 -3.47,17.6 -10.01,30.95 -19.61,40.02 -9.61,9.08 -22.69,15.09 -39.24,18.02 -16.55,2.93 -37.62,4.4 -63.25,4.4 -27.22,0 -49.37,-1.47 -66.45,-4.4 -17.08,-2.93 -30.42,-9.08 -40.03,-18.41 -9.61,-9.35 -16.15,-22.82 -19.62,-40.44 -3.47,-17.61 -5.2,-41.09 -5.2,-70.45l0 -381.89c0,-28.83 1.87,-52.04 5.61,-69.66 3.73,-17.61 10.53,-31.09 20.41,-40.43 9.88,-9.33 23.35,-15.47 40.43,-18.41 17.09,-2.93 38.7,-4.41 64.85,-4.41 25.63,0 46.7,1.48 63.25,4.41 16.55,2.94 29.63,9.08 39.24,18.41 9.6,9.34 16.14,22.68 19.61,40.04 3.47,17.34 5.2,40.69 5.2,70.05l0 143.31 -88.87 0z"/>
   <path class="fil1" d="M5804.41 -21401.17l0 -4.45 -38.16 0 0 124.81 5 0 0 -34.06 28.17 0 0 -4.63 -28.17 0 0 -81.67 33.16 0zm16.59 120.36l0 -99.67 -4.99 0 0 99.67 4.99 0zm50.82 -8.91c-1.25,-4.64 -2.5,-9.1 -3.92,-14.27l-26.04 -76.49 -4.81 0 0 99.67 4.99 0 0 -76.85c-0.18,-3.21 -0.71,-8.38 -1.25,-12.84 0,0 0.18,0 0.18,0 1.07,4.1 2.32,9.1 3.39,12.66l26.56 77.03 4.82 0 0 -99.67 -4.99 0 0 76.49c0.17,4.99 0.71,9.45 1.25,14.27 0,0 -0.18,0 -0.18,0zm49.03 8.91l5 0 -15.7 -99.67 -6.41 0 -15.34 99.67 4.81 0 4.28 -27.1 19.26 0 4.1 27.1zm-23 -31.2l9.09 -59.92 9.1 59.92 -18.19 0zm75.25 22.29c-1.25,-4.64 -2.5,-9.1 -3.92,-14.27l-26.04 -76.49 -4.81 0 0 99.67 4.99 0 0 -76.85c-0.18,-3.21 -0.71,-8.38 -1.25,-12.84 0,0 0.18,0 0.18,0 1.07,4.1 2.32,9.1 3.39,12.66l26.57 77.03 4.81 0 0 -99.67 -4.99 0 0 76.49c0.18,4.99 0.71,9.45 1.25,14.27 0,0 -0.18,0 -0.18,0zm26.39 26.39c0,5.7 3.92,8.38 8.56,8.38l3.92 0c5,0 9.1,-3.21 9.1,-8.38 0,-5.35 -4.1,-8.38 -9.1,-8.38l-1.42 0 2.14 -8.21c10.7,-1.24 15.69,-10.87 15.69,-20.15l0 -7.66 -4.99 0 0 7.66c0,8.21 -4.11,15.34 -13.2,15.34 -9.27,0 -13.91,-7.67 -13.91,-15.51l0 -60.45c0,-9.63 5.88,-15.69 13.91,-15.69 8.91,0 13.37,7.67 13.37,15.69l0 8.38 4.64 0 0 -8.38c0,-11.41 -7.13,-20.33 -18.37,-20.33 -11.23,0 -18.54,9.09 -18.54,20.33l0 60.45c0,11.05 6.42,19.79 17.47,20.32l-3.03 11.77 6.07 0c2.85,0 5.17,1.78 5.17,4.82 0,3.03 -2.68,4.45 -5.17,4.45l-3.75 0c-2.68,0 -4.64,-1.42 -4.64,-4.45l-3.92 0zm71.68 -17.48l5 0 -15.7 -99.67 -6.41 0 -15.34 99.67 4.82 0 4.27 -27.1 19.26 0 4.1 27.1zm-23 -31.2l9.09 -59.92 9.1 59.92 -18.19 0zm57.42 32.27c12.48,0 18.37,-9.09 18.37,-20.15l0 -7.31c0,-8.91 -8.21,-13.55 -16.77,-18.36 -8.55,-4.99 -14.8,-8.21 -15.15,-15.69l0 -20.15c0,-10.17 5.17,-14.98 12.3,-14.98 8.74,0 11.95,6.77 11.95,14.8l0 12.12 4.99 0 0 -12.3c0,-11.23 -6.06,-19.44 -16.94,-19.44 -11.77,0 -17.47,8.56 -17.47,19.8l0 20.5c0.17,8.92 8.56,14.27 19.43,20.51 6.78,3.74 12.84,6.95 12.84,13.73l0 6.77c0,8.74 -4.46,15.52 -13.55,15.52 -9.45,0 -14.09,-7.49 -13.73,-15.7l0 -8.91 -4.99 0 0 8.91c-0.18,12.31 7.84,20.33 18.72,20.33zm100.75 -96.29l0 -4.45 -32.81 0 0 99.67 32.81 0 0 -4.81 -27.82 0 0 -22.29 22.11 0 0 -4.64 -22.11 0 0 -63.48 27.82 0zm54.74 95.22l0 -124.81 -5 0 0 124.81 5 0zm52.42 -8.91c-1.25,-4.64 -2.5,-9.1 -3.92,-14.27l-26.04 -76.49 -4.81 0 0 99.67 4.99 0 0 -76.85c-0.18,-3.21 -0.71,-8.38 -1.25,-12.84 0,0 0.18,0 0.18,0 1.07,4.1 2.32,9.1 3.39,12.66l26.57 77.03 4.81 0 0 -99.67 -4.99 0 0 76.49c0.18,4.99 0.71,9.45 1.25,14.27 0,0 -0.18,0 -0.18,0zm35.13 2.85l-4.1 -32.63 -9.27 -61.16 -4.82 0 14.98 99.85 6.78 0 15.51 -99.85 -5 0 -9.45 61.16 -4.27 32.63 -0.36 0zm64.9 -89.16l0 -4.45 -32.8 0 0 99.67 32.8 0 0 -4.81 -27.81 0 0 -22.29 22.11 0 0 -4.64 -22.11 0 0 -63.48 27.81 0zm29.6 96.29c12.49,0 18.37,-9.09 18.37,-20.15l0 -7.31c0,-8.91 -8.2,-13.55 -16.76,-18.36 -8.56,-4.99 -14.8,-8.21 -15.16,-15.69l0 -20.15c0,-10.17 5.17,-14.98 12.31,-14.98 8.73,0 11.94,6.77 11.94,14.8l0 12.12 5 0 0 -12.3c0,-11.23 -6.07,-19.44 -16.94,-19.44 -11.78,0 -17.48,8.56 -17.48,19.8l0 20.5c0.18,8.92 8.56,14.27 19.44,20.51 6.77,3.74 12.83,6.95 12.83,13.73l0 6.77c0,8.74 -4.45,15.52 -13.55,15.52 -9.45,0 -14.08,-7.49 -13.73,-15.7l0 -8.91 -4.99 0 0 8.91c-0.18,12.31 7.85,20.33 18.72,20.33zm60.1 -100.74l-32.82 0 0 4.45 14.09 0 0 95.22 4.64 0 0 -95.22 14.09 0 0 -4.45zm16.58 99.67l0 -99.67 -4.99 0 0 99.67 4.99 0zm38.52 -6.06c-0.72,-6.6 -1.43,-13.2 -2.32,-19.97l-11.24 -73.82 -6.95 0 -3.74 99.85 4.81 0 2.49 -59.91 0.18 -30.85 0.36 0 4.1 31.21 9.45 58.66 6.06 0 9.46 -58.66 4.1 -31.21 0.35 0 0.18 30.85 2.5 59.91 4.81 0 -3.74 -99.85 -6.96 0 -11.23 73.82c-1.07,6.95 -1.61,13.37 -2.32,19.97l-0.35 0zm72.57 -89.16l0 -4.45 -32.81 0 0 99.67 32.81 0 0 -4.81 -27.81 0 0 -22.29 22.1 0 0 -4.64 -22.1 0 0 -63.48 27.81 0zm47.43 86.31c-1.25,-4.64 -2.5,-9.1 -3.92,-14.27l-26.03 -76.49 -4.82 0 0 99.67 4.99 0 0 -76.85c-0.17,-3.21 -0.71,-8.38 -1.25,-12.84 0,0 0.18,0 0.18,0 1.07,4.1 2.32,9.1 3.39,12.66l26.57 77.03 4.81 0 0 -99.67 -4.99 0 0 76.49c0.18,4.99 0.72,9.45 1.25,14.27 0,0 -0.18,0 -0.18,0zm47.79 -90.76l-32.81 0 0 4.45 14.09 0 0 95.22 4.63 0 0 -95.22 14.09 0 0 -4.45zm28.89 100.74c12.12,0 18.19,-9.8 18.19,-20.33l0 -61.33c0,-10.88 -6.78,-19.97 -18.19,-19.97 -12.3,0 -18.72,9.44 -18.72,19.97l0 61.51c0,11.24 6.95,20.15 18.72,20.15zm0 -97c9.27,0 13.19,7.85 13.19,15.34l0 61.33c0,8.38 -4.1,15.34 -13.19,15.34 -9.27,0 -13.73,-7.13 -13.73,-15.16l0 -61.51c0,-8.38 4.46,-15.34 13.73,-15.34zm50.46 97c12.49,0 18.37,-9.09 18.37,-20.15l0 -7.31c0,-8.91 -8.2,-13.55 -16.76,-18.36 -8.56,-4.99 -14.8,-8.21 -15.16,-15.69l0 -20.15c0,-10.17 5.17,-14.98 12.31,-14.98 8.73,0 11.94,6.77 11.94,14.8l0 12.12 5 0 0 -12.3c0,-11.23 -6.07,-19.44 -16.94,-19.44 -11.78,0 -17.48,8.56 -17.48,19.8l0 20.5c0.18,8.92 8.56,14.27 19.44,20.51 6.77,3.74 12.83,6.95 12.83,13.73l0 6.77c0,8.74 -4.45,15.52 -13.55,15.52 -9.45,0 -14.08,-7.49 -13.73,-15.7l0 -8.91 -4.99 0 0 8.91c-0.18,12.31 7.85,20.33 18.72,20.33z"/>
  </g>
  <g id="_2843087122560">
   <g>
    <path class="fil0" d="M5160.2 2068.8c-2520.44,0 -4563.74,2043.18 -4563.74,4563.62 0,1600.33 823.98,3008.16 2070.73,3822.79 -20.82,-130.41 -31.79,-264.06 -31.79,-400.08 0,-328.4 63.09,-642.83 177.79,-931.58 -662.28,-624.12 -1075.83,-1509.31 -1075.83,-2491.13 0,-1890.33 1532.51,-3422.71 3422.84,-3422.71 40.64,0 81.16,0.99 121.43,2.37l0 4308.4 0 1618.78 0 360.81 0 552.69 0 2.37 1140.91 0 0 -7986.33 -1140.91 0 0 1.62c-40.39,-0.99 -80.79,-1.62 -121.43,-1.62z"/>
    <g>
     <path class="fil0" d="M5038.64 4353.85c-1203.74,63.21 -2160.37,1059.12 -2160.37,2278.57l0 2341.65c239.62,-504.81 641.95,-918.61 1141.03,-1171.82l0 -1169.83c0,-589.09 446.46,-1073.83 1019.34,-1134.42l0 -1144.15z"/>
     <path class="fil0" d="M5038.64 7776.56c-1203.74,63.09 -2160.37,1059.12 -2160.37,2278.57 0,1219.45 956.63,2215.35 2160.37,2278.56l0 -1144.14c-572.88,-60.72 -1019.34,-545.46 -1019.34,-1134.42 0,-589.09 446.46,-1073.83 1019.34,-1134.42l0 -1144.15z"/>
    </g>
   </g>
   <path class="fil1" d="M9771.31 10054.26l0 -1756.8 -968.22 0 0 1756.8 -1118.09 0 0 -6328.4c0,-359.44 21.69,-648.81 64.95,-868.49 43.39,-219.55 124.8,-387.61 244.62,-504.06 119.68,-116.32 281.14,-192.87 483.99,-229.52 203.09,-36.53 464.16,-54.99 783.7,-54.99 332.76,0 607.17,20.08 823.48,59.85 216.32,40.02 386,118.19 509.05,234.64 123.18,116.44 208.09,282.88 254.59,499.07 46.63,216.31 69.82,504.06 69.82,863.5l0 6328.4 -1147.89 0zm-489.1 -6957.26c-99.86,0 -181.4,8.35 -244.49,24.94 -63.21,16.58 -113.2,46.62 -149.73,89.89 -36.66,43.26 -59.97,106.47 -69.94,189.5 -9.98,83.29 -14.96,191.38 -14.96,324.53l0 3633.29 968.22 0 0 -3633.29c0,-133.15 -6.73,-241.24 -19.94,-324.53 -13.22,-83.03 -36.66,-146.24 -69.82,-189.5 -33.29,-43.27 -83.29,-73.31 -149.74,-89.89 -66.7,-16.59 -149.73,-24.94 -249.6,-24.94zm3593.52 6957.26l-1148.01 0 0 -7885.59 1637.11 0c339.37,0 615.52,18.33 828.47,54.98 212.94,36.53 381,112.96 504.06,229.53 123.18,116.44 206.34,279.52 249.47,489.1 43.27,209.58 64.96,487.35 64.96,833.45l0 828.47c0,206.34 -21.69,374.4 -64.96,504.19 -43.13,129.66 -99.74,234.39 -169.55,314.43 -69.95,79.79 -146.5,138.01 -229.66,174.54 -83.16,36.66 -164.69,64.96 -244.61,84.91l0 39.89c106.6,26.56 203.1,61.59 289.62,104.86 86.53,43.13 161.33,109.71 224.54,199.6 63.21,89.77 111.46,204.59 144.62,344.35 33.42,139.76 50,319.42 50,538.97l0 3144.32 -1157.98 0 0 -3323.97c0,-212.95 -26.44,-360.94 -79.8,-444.22 -53.11,-83.03 -179.65,-124.68 -379.26,-124.68l-519.02 0 0 3892.87zm0 -4801.25l519.02 0c186.27,0 309.45,-36.53 369.29,-109.71 59.84,-73.31 89.77,-206.34 89.77,-399.34l0 -968.23c0,-126.42 -4.87,-227.9 -14.97,-304.45 -9.84,-76.55 -31.54,-138.02 -64.83,-184.65 -33.16,-46.5 -83.03,-78.17 -149.73,-94.88 -66.45,-16.58 -152.98,-24.93 -259.45,-24.93l-489.1 0 0 2086.19zm4970.93 259.57l0 -1786.72c0,-133.15 -4.99,-241.24 -14.97,-324.53 -9.84,-83.03 -33.28,-146.24 -69.81,-189.5 -36.66,-43.27 -86.53,-73.31 -149.74,-89.89 -63.21,-16.59 -144.75,-24.94 -244.61,-24.94 -106.47,0 -191.25,8.35 -254.59,24.94 -63.08,16.58 -112.95,48.25 -149.73,94.75 -36.53,46.63 -59.85,111.58 -69.7,194.74 -10.1,83.16 -14.96,188.01 -14.96,314.43l0 4761.23c0,139.76 4.86,251.22 14.96,334.38 9.85,83.15 33.17,148.11 69.7,194.74 36.78,46.5 86.65,78.05 149.73,94.75 63.34,16.58 148.12,24.94 254.59,24.94 99.86,0 181.4,-8.36 244.61,-24.94 63.21,-16.7 113.08,-48.25 149.74,-94.75 36.53,-46.63 59.97,-111.59 69.81,-194.74 9.98,-83.16 14.97,-194.62 14.97,-334.38l0 -1826.75 1107.98 0 0 1826.75c0,372.65 -21.56,668.76 -64.83,888.43 -43.26,219.43 -124.8,385.87 -244.48,498.95 -119.82,113.21 -282.89,188.14 -489.23,224.67 -206.34,36.53 -469.03,54.86 -788.57,54.86 -339.37,0 -615.52,-18.33 -828.47,-54.86 -212.94,-36.53 -379.26,-113.21 -499.07,-229.53 -119.82,-116.57 -201.35,-284.51 -244.62,-504.19 -43.26,-219.55 -64.83,-512.29 -64.83,-878.33l0 -4761.23c0,-359.44 23.32,-648.81 69.95,-868.49 46.5,-219.55 131.28,-387.61 254.46,-504.06 123.18,-116.32 291.11,-192.87 504.06,-229.52 213.07,-36.53 482.49,-54.99 808.52,-54.99 319.54,0 582.23,18.46 788.57,54.99 206.34,36.65 369.41,113.2 489.23,229.52 119.68,116.45 201.22,282.77 244.48,499.2 43.27,216.19 64.83,507.31 64.83,873.35l0 1786.72 -1107.98 0z"/>
   <path class="fil1" d="M6244.87 10801.81l0 -55.48 -475.76 0 0 1556.07 62.34 0 0 -424.64 351.21 0 0 -57.73 -351.21 0 0 -1018.22 413.42 0zm206.84 1500.59l0 -1242.64 -62.21 0 0 1242.64 62.21 0zm633.6 -111.09c-15.59,-57.85 -31.17,-113.45 -48.87,-177.91l-324.66 -953.64 -59.97 0 0 1242.64 62.22 0 0 -958.13c-2.25,-40.02 -8.86,-104.48 -15.59,-160.08 0,0 2.25,0 2.25,0 13.34,51.11 28.92,113.45 42.26,157.84l331.14 960.37 60.09 0 0 -1242.64 -62.21 0 0 953.64c2.12,62.22 8.85,117.82 15.58,177.91 0,0 -2.24,0 -2.24,0zm611.28 111.09l62.34 0 -195.74 -1242.64 -79.92 0 -191.25 1242.64 59.97 0 53.36 -337.87 240.13 0 51.11 337.87zm-286.75 -388.99l113.33 -747.05 113.45 747.05 -226.78 0zm938.18 277.9c-15.58,-57.85 -31.17,-113.45 -48.87,-177.91l-324.66 -953.64 -59.97 0 0 1242.64 62.22 0 0 -958.13c-2.25,-40.02 -8.85,-104.48 -15.59,-160.08 0,0 2.25,0 2.25,0 13.34,51.11 28.92,113.45 42.26,157.84l331.26 960.37 59.97 0 0 -1242.64 -62.21 0 0 953.64c2.24,62.22 8.85,117.82 15.58,177.91 0,0 -2.24,0 -2.24,0zm329.02 329.02c0,71.07 48.87,104.48 106.72,104.48l48.87 0c62.34,0 113.46,-40.02 113.46,-104.48 0,-66.7 -51.12,-104.48 -113.46,-104.48l-17.7 0 26.68 -102.35c133.4,-15.46 195.62,-135.53 195.62,-251.22l0 -95.51 -62.22 0 0 95.51c0,102.35 -51.24,191.25 -164.57,191.25 -115.57,0 -173.42,-95.63 -173.42,-193.37l0 -753.67c0,-120.06 73.31,-195.61 173.42,-195.61 111.09,0 166.69,95.62 166.69,195.61l0 104.48 57.85 0 0 -104.48c0,-142.25 -88.89,-253.46 -229.03,-253.46 -140.01,0 -231.15,113.33 -231.15,253.46l0 753.67c0,137.76 80.05,246.73 217.81,253.34l-37.77 146.74 75.67 0c35.54,0 64.46,22.19 64.46,60.09 0,37.78 -33.41,55.48 -64.46,55.48l-46.75 0c-33.41,0 -57.85,-17.7 -57.85,-55.48l-48.87 0zm893.67 -217.93l62.34 0 -195.74 -1242.64 -79.92 0 -191.25 1242.64 60.09 0 53.24 -337.87 240.12 0 51.12 337.87zm-286.75 -388.99l113.33 -747.05 113.45 747.05 -226.78 0zm715.88 402.33c155.6,0 229.03,-113.33 229.03,-251.22l0 -91.14c0,-111.08 -102.36,-168.93 -209.08,-228.9 -106.6,-62.22 -184.52,-102.36 -188.88,-195.62l0 -251.22c0,-126.79 64.46,-186.76 153.35,-186.76 108.97,0 148.99,84.4 148.99,184.52l0 151.1 62.21 0 0 -153.35c0,-140.01 -75.55,-242.37 -211.2,-242.37 -146.74,0 -217.81,106.73 -217.81,246.86l0 255.59c2.12,111.21 106.72,177.91 242.25,255.7 84.53,46.63 160.08,86.65 160.08,171.18l0 84.41c0,108.97 -55.61,193.5 -168.94,193.5 -117.81,0 -175.66,-93.39 -171.18,-195.74l0 -111.09 -62.21 0 0 111.09c-2.24,153.47 97.75,253.46 233.39,253.46zm1256.11 -1200.5l0 -55.48 -409.06 0 0 1242.64 409.06 0 0 -59.97 -346.85 0 0 -277.9 275.66 0 0 -57.85 -275.66 0 0 -791.44 346.85 0zm682.47 1187.16l0 -1556.07 -62.34 0 0 1556.07 62.34 0zm653.55 -111.09c-15.59,-57.85 -31.17,-113.45 -48.88,-177.91l-324.65 -953.64 -59.97 0 0 1242.64 62.21 0 0 -958.13c-2.24,-40.02 -8.85,-104.48 -15.58,-160.08 0,0 2.24,0 2.24,0 13.34,51.11 28.93,113.45 42.27,157.84l331.26 960.37 59.97 0 0 -1242.64 -62.21 0 0 953.64c2.24,62.22 8.85,117.82 15.58,177.91 0,0 -2.24,0 -2.24,0zm437.98 35.54l-51.12 -406.82 -115.57 -762.51 -60.09 0 186.76 1244.88 84.53 0 193.37 -1244.88 -62.34 0 -117.81 762.51 -53.24 406.82 -4.49 0zm809.14 -1111.61l0 -55.48 -408.93 0 0 1242.64 408.93 0 0 -59.97 -346.72 0 0 -277.9 275.66 0 0 -57.85 -275.66 0 0 -791.44 346.72 0zm369.04 1200.5c155.72,0 229.03,-113.33 229.03,-251.22l0 -91.14c0,-111.08 -102.23,-168.93 -208.95,-228.9 -106.73,-62.22 -184.52,-102.36 -189.01,-195.62l0 -251.22c0,-126.79 64.45,-186.76 153.47,-186.76 108.84,0 148.87,84.4 148.87,184.52l0 151.1 62.33 0 0 -153.35c0,-140.01 -75.68,-242.37 -211.2,-242.37 -146.86,0 -217.93,106.73 -217.93,246.86l0 255.59c2.24,111.21 106.72,177.91 242.37,255.7 84.4,46.63 159.96,86.65 159.96,171.18l0 84.41c0,108.97 -55.48,193.5 -168.94,193.5 -117.82,0 -175.54,-93.39 -171.18,-195.74l0 -111.09 -62.21 0 0 111.09c-2.24,153.47 97.87,253.46 233.39,253.46zm749.3 -1255.98l-409.18 0 0 55.48 175.66 0 0 1187.16 57.85 0 0 -1187.16 175.67 0 0 -55.48zm206.71 1242.64l0 -1242.64 -62.21 0 0 1242.64 62.21 0zm480.25 -75.55c-8.97,-82.29 -17.83,-164.57 -28.92,-248.98l-140.14 -920.35 -86.65 0 -46.63 1244.88 59.97 0 31.05 -746.93 2.24 -384.62 4.49 0 51.12 389.11 117.81 731.34 75.56 0 117.94 -731.34 51.12 -389.11 4.36 0 2.25 384.62 31.16 746.93 59.97 0 -46.63 -1244.88 -86.77 0 -140.01 920.35c-13.34,86.65 -20.07,166.69 -28.92,248.98l-4.37 0zm904.77 -1111.61l0 -55.48 -409.06 0 0 1242.64 409.06 0 0 -59.97 -346.72 0 0 -277.9 275.53 0 0 -57.85 -275.53 0 0 -791.44 346.72 0zm591.34 1076.07c-15.59,-57.85 -31.17,-113.45 -48.88,-177.91l-324.53 -953.64 -60.09 0 0 1242.64 62.21 0 0 -958.13c-2.12,-40.02 -8.85,-104.48 -15.58,-160.08 0,0 2.24,0 2.24,0 13.34,51.11 28.93,113.45 42.27,157.84l331.26 960.37 59.97 0 0 -1242.64 -62.22 0 0 953.64c2.25,62.22 8.98,117.82 15.59,177.91 0,0 -2.24,0 -2.24,0zm595.82 -1131.55l-409.06 0 0 55.48 175.67 0 0 1187.16 57.72 0 0 -1187.16 175.67 0 0 -55.48zm360.19 1255.98c151.1,0 226.78,-122.18 226.78,-253.46l0 -764.64c0,-135.65 -84.53,-248.97 -226.78,-248.97 -153.36,0 -233.4,117.69 -233.4,248.97l0 766.88c0,140.13 86.65,251.22 233.4,251.22zm0 -1209.35c115.57,0 164.44,97.87 164.44,191.25l0 764.64c0,104.47 -51.12,191.25 -164.44,191.25 -115.58,0 -171.18,-88.9 -171.18,-189.01l0 -766.88c0,-104.48 55.6,-191.25 171.18,-191.25zm629.11 1209.35c155.72,0 229.02,-113.33 229.02,-251.22l0 -91.14c0,-111.08 -102.23,-168.93 -208.95,-228.9 -106.72,-62.22 -184.52,-102.36 -189.01,-195.62l0 -251.22c0,-126.79 64.46,-186.76 153.48,-186.76 108.84,0 148.86,84.4 148.86,184.52l0 151.1 62.34 0 0 -153.35c0,-140.01 -75.68,-242.37 -211.2,-242.37 -146.87,0 -217.94,106.73 -217.94,246.86l0 255.59c2.25,111.21 106.73,177.91 242.37,255.7 84.41,46.63 159.96,86.65 159.96,171.18l0 84.41c0,108.97 -55.48,193.5 -168.93,193.5 -117.82,0 -175.55,-93.39 -171.18,-195.74l0 -111.09 -62.22 0 0 111.09c-2.24,153.47 97.87,253.46 233.4,253.46z"/>
  </g>
 </g>
</svg>
